# File produced by Open Asset Import Library (http://www.assimp.sf.net)
# (assimp v5.0.1588609223)

mtllib result.mtl

# 70 vertex positions
v  29.173231 1.311287e-14 -59.055119
v  -30.236219 0 0
v  -30.236219 1.311287e-14 -59.055119
v  29.173231 0 0
v  -30.236219 56.22047 -59.055119
v  -30.236219 56.22047 1.2483452e-14
v  29.173231 28.110241 -59.055119
v  88.58268 1.311287e-14 -59.055119
v  81.200775 3.5137801 -59.055119
v  73.818878 7.0275588 -59.055119
v  66.437012 10.54134 -59.055119
v  59.055122 14.05512 -59.055119
v  51.673225 17.568899 -59.055119
v  44.291336 21.08268 -59.055119
v  36.909447 24.59646 -59.055119
v  21.791342 31.62402 -59.055119
v  14.409452 35.137798 -59.055119
v  7.0275593 38.651569 -59.055119
v  -0.35433006 42.165352 -59.055119
v  -7.7362194 45.679131 -59.055119
v  -15.11811 49.192909 -59.055119
v  -22.5 52.706692 -59.055119
v  -22.5 56.22047 -59.055119
v  -15.11811 52.706692 -59.055119
v  -7.7362194 49.192909 -59.055119
v  -0.35433006 45.679131 -59.055119
v  7.0275593 42.165352 -59.055119
v  14.409452 38.651569 -59.055119
v  21.791342 35.137798 -59.055119
v  29.173231 31.62402 -59.055119
v  36.909447 28.110241 -59.055119
v  44.291336 24.59646 -59.055119
v  51.673225 21.08268 -59.055119
v  59.055122 17.568899 -59.055119
v  66.437012 14.05512 -59.055119
v  73.818878 10.54134 -59.055119
v  81.200775 7.0275588 -59.055119
v  88.58268 3.5137801 -59.055119
v  88.58268 0 0
v  88.58268 3.5137801 7.8021592e-16
v  81.200775 3.5137801 7.8021592e-16
v  29.173231 28.110241 6.2417273e-15
v  73.818878 7.0275588 1.5604315e-15
v  81.200775 7.0275588 1.5604315e-15
v  66.437012 10.54134 2.3406476e-15
v  73.818878 10.54134 2.3406476e-15
v  59.055122 14.05512 3.1208637e-15
v  66.437012 14.05512 3.1208637e-15
v  51.673225 17.568899 3.9010793e-15
v  59.055122 17.568899 3.9010793e-15
v  44.291336 21.08268 4.6812953e-15
v  51.673225 21.08268 4.6812953e-15
v  36.909447 24.59646 5.4615113e-15
v  44.291336 24.59646 5.4615113e-15
v  36.909447 28.110241 6.2417273e-15
v  21.791342 31.62402 7.0219429e-15
v  29.173231 31.62402 7.0219429e-15
v  14.409452 35.137798 7.8021585e-15
v  21.791342 35.137798 7.8021585e-15
v  7.0275593 38.651569 8.5823724e-15
v  14.409452 38.651569 8.5823724e-15
v  -0.35433006 42.165352 9.3625889e-15
v  7.0275593 42.165352 9.3625889e-15
v  -7.7362194 45.679131 1.0142804e-14
v  -0.35433006 45.679131 1.0142804e-14
v  -15.11811 49.192909 1.092302e-14
v  -7.7362194 49.192909 1.092302e-14
v  -22.5 52.706692 1.1703237e-14
v  -15.11811 52.706692 1.1703237e-14
v  -22.5 56.22047 1.2483452e-14

# 0 UV coordinates

# 6 vertex normals
vn 0 -1 -2.220446e-16
vn -1 0 0
vn 0 2.220446e-16 -1
vn 0 -2.220446e-16 1
vn 0 1 2.220446e-16
vn 1 0 0

# Mesh 'Material2' with 136 faces
g Material2
usemtl Carrera_Marble
f  1//1 2//1 3//1
f  2//1 1//1 4//1
f  5//2 2//2 6//2
f  2//2 5//2 3//2
f  5//3 1//3 3//3
f  1//3 5//3 7//3
f  1//3 7//3 8//3
f  8//3 7//3 9//3
f  9//3 7//3 10//3
f  10//3 7//3 11//3
f  11//3 7//3 12//3
f  12//3 7//3 13//3
f  13//3 7//3 14//3
f  14//3 7//3 15//3
f  7//3 5//3 16//3
f  16//3 5//3 17//3
f  17//3 5//3 18//3
f  18//3 5//3 19//3
f  19//3 5//3 20//3
f  20//3 5//3 21//3
f  21//3 5//3 22//3
f  22//3 5//3 23//3
f  24//3 21//3 22//3
f  25//3 20//3 21//3
f  26//3 19//3 20//3
f  27//3 18//3 19//3
f  28//3 17//3 18//3
f  29//3 16//3 17//3
f  30//3 7//3 16//3
f  31//3 15//3 7//3
f  32//3 14//3 15//3
f  33//3 13//3 14//3
f  34//3 12//3 13//3
f  35//3 11//3 12//3
f  36//3 10//3 11//3
f  37//3 9//3 10//3
f  38//3 8//3 9//3
f  8//1 4//1 1//1
f  4//1 8//1 39//1
f  40//4 4//4 39//4
f  4//4 40//4 2//4
f  2//4 40//4 41//4
f  2//4 41//4 42//4
f  2//4 42//4 6//4
f  42//4 41//4 43//4
f  43//4 41//4 44//4
f  42//4 43//4 45//4
f  45//4 43//4 46//4
f  42//4 45//4 47//4
f  47//4 45//4 48//4
f  42//4 47//4 49//4
f  49//4 47//4 50//4
f  42//4 49//4 51//4
f  51//4 49//4 52//4
f  42//4 51//4 53//4
f  53//4 51//4 54//4
f  42//4 53//4 55//4
f  6//4 42//4 56//4
f  56//4 42//4 57//4
f  6//4 56//4 58//4
f  58//4 56//4 59//4
f  6//4 58//4 60//4
f  60//4 58//4 61//4
f  6//4 60//4 62//4
f  62//4 60//4 63//4
f  6//4 62//4 64//4
f  64//4 62//4 65//4
f  6//4 64//4 66//4
f  66//4 64//4 67//4
f  6//4 66//4 68//4
f  68//4 66//4 69//4
f  6//4 68//4 70//4
f  70//5 5//5 6//5
f  5//5 70//5 23//5
f  22//6 70//6 68//6
f  70//6 22//6 23//6
f  69//5 22//5 68//5
f  22//5 69//5 24//5
f  21//6 69//6 66//6
f  69//6 21//6 24//6
f  67//5 21//5 66//5
f  21//5 67//5 25//5
f  20//6 67//6 64//6
f  67//6 20//6 25//6
f  65//5 20//5 64//5
f  20//5 65//5 26//5
f  19//6 65//6 62//6
f  65//6 19//6 26//6
f  63//5 19//5 62//5
f  19//5 63//5 27//5
f  18//6 63//6 60//6
f  63//6 18//6 27//6
f  61//5 18//5 60//5
f  18//5 61//5 28//5
f  17//6 61//6 58//6
f  61//6 17//6 28//6
f  59//5 17//5 58//5
f  17//5 59//5 29//5
f  16//6 59//6 56//6
f  59//6 16//6 29//6
f  57//5 16//5 56//5
f  16//5 57//5 30//5
f  7//6 57//6 42//6
f  57//6 7//6 30//6
f  55//5 7//5 42//5
f  7//5 55//5 31//5
f  15//6 55//6 53//6
f  55//6 15//6 31//6
f  54//5 15//5 53//5
f  15//5 54//5 32//5
f  14//6 54//6 51//6
f  54//6 14//6 32//6
f  52//5 14//5 51//5
f  14//5 52//5 33//5
f  13//6 52//6 49//6
f  52//6 13//6 33//6
f  50//5 13//5 49//5
f  13//5 50//5 34//5
f  12//6 50//6 47//6
f  50//6 12//6 34//6
f  48//5 12//5 47//5
f  12//5 48//5 35//5
f  11//6 48//6 45//6
f  48//6 11//6 35//6
f  46//5 11//5 45//5
f  11//5 46//5 36//5
f  10//6 46//6 43//6
f  46//6 10//6 36//6
f  44//5 10//5 43//5
f  10//5 44//5 37//5
f  9//6 44//6 41//6
f  44//6 9//6 37//6
f  40//5 9//5 41//5
f  9//5 40//5 38//5
f  8//6 40//6 39//6
f  40//6 8//6 38//6

